<?xml version="1.0" encoding="UTF-8"?>
<svg xmlns="http://www.w3.org/2000/svg" viewBox="0 0 512 512" width="512" height="512"><g id="Fill_out_line" data-name="Fill out line"><path d="M453.01,161.04a12.53485,12.53485,0,0,1-7.59009,11.5L425.64,181.01a71.96131,71.96131,0,0,0-37.18,36.38989L370.1,257.77a79.92515,79.92515,0,0,1-30.9,35.03l-232.51,143.09009L77.73,409.7l228.73-129.03A104.03132,104.03132,0,0,0,350.04,233.12012l10.86987-23.93018a96.00055,96.00055,0,0,1,48.41016-48L435.4,149.6001A12.53683,12.53683,0,0,1,453.01,161.04Z" style="fill:#ad7d4d"/><path d="M340.2,74.45a158.17106,158.17106,0,0,1-22.82995,53.49L319.1,159.5,320,176H264V64a15.99931,15.99931,0,0,1,16-16,16.40045,16.40045,0,0,1,2.23.1499A16.00045,16.00045,0,1,1,312,40a16,16,0,0,1,32,0A158.19716,158.19716,0,0,1,340.2,74.45Z" style="fill:#4ba477"/><path d="M312,176H232V64.45c0-8.61987,6.63-16.03,15.23-16.42993A15.99858,15.99858,0,0,1,264,64a16.38112,16.38112,0,0,1-.15,2.23,1.09221,1.09221,0,0,1,.15-.08008A15.8227,15.8227,0,0,1,272,64a15.99548,15.99548,0,0,1,16,16,16.00281,16.00281,0,0,1,7.79,29.98l2.45,5.12988c.23.49024.47.98.68994,1.48A141.512,141.512,0,0,1,312,176Z" style="fill:#4ba477"/><path d="M264,141.85986,272,176H232l-2.29507-2.86884A135.55771,135.55771,0,0,1,200,88.44892v-.00006c0-8.61784,6.62613-16.03048,15.23466-16.431A15.99656,15.99656,0,0,1,232,88a16.38112,16.38112,0,0,1-.15,2.23,16.001,16.001,0,0,1,21.92,21.91992l.10333-.01379a16.25013,16.25013,0,0,1,18.03347,14.11464A16.00087,16.00087,0,0,1,264,141.85986Z" style="fill:#4ba477"/><path d="M312,141.85986,304,176h40l2.29507-2.86884A135.55771,135.55771,0,0,0,376,88.44892v-.00006c0-8.61784-6.62613-16.03048-15.23466-16.431A15.99656,15.99656,0,0,0,344,88a16.38112,16.38112,0,0,0,.15,2.23,16.001,16.001,0,0,0-21.92,21.91992l-.10333-.01379a16.25013,16.25013,0,0,0-18.03347,14.11464A16.00087,16.00087,0,0,0,312,141.85986Z" style="fill:#4ba477"/><circle cx="104" cy="432" r="56" style="fill:#395166"/><path d="M104,496a64,64,0,1,1,64-64A64.07239,64.07239,0,0,1,104,496Zm0-112a48,48,0,1,0,48,48A48.05405,48.05405,0,0,0,104,384Z" style="fill:#2f4054"/><circle cx="104" cy="432" r="32" style="fill:#c4d4e0"/><path d="M320.5977,488h0a33.19531,33.19531,0,0,1-26.55624-13.27812L232,392l24-16,52.85845,75.51207A10.52176,10.52176,0,0,0,317.47822,456h0A10.52177,10.52177,0,0,0,328,445.47823V344h32l-6.25811,112.64605A33.19531,33.19531,0,0,1,320.5977,488Z" style="fill:#ad7d4d"/><polygon points="129.637 337.637 192 400 368 328 361.347 268.125 129.637 337.637" style="fill:#e44b4d"/><polygon points="64 256 351.5 202.439 376 264 112 344 64 256" style="fill:#c4d4e0"/><polygon points="104 272 336 232 344 248 128 312 104 272" style="fill:#395166"/><polygon points="104 272 104 232 168 232 168 300.148 128 312 104 272" style="fill:#8acce7"/><polygon points="104 272 64 256 72 232 104 240 104 272" style="fill:#379ec3"/><path d="M32,272l32-16,8-24L48,200l-1.53694,1.53694A65.33443,65.33443,0,0,0,32,272Z" style="fill:#8acce7"/><polygon points="344 200 344 248 232 281.19 232 200 344 200" style="fill:#ad7d4d"/><rect x="224" y="176" width="128" height="24" style="fill:#c4965c"/><path d="M35.24882,469.62441h0a12.57654,12.57654,0,0,1-5.6244-16.8732l.14081-.28161a12.5765,12.5765,0,0,1,6.92773-6.18652l278.42363-101.8623a115.70246,115.70246,0,0,0,65.09437-59.72992l22.86169-48.98935A48,48,0,0,1,446.56943,208H476a12,12,0,0,1,12,12v0a12,12,0,0,1-12,12h-22.335a32,32,0,0,0-29.71125,20.1155l-16.45814,41.14534a138.92324,138.92324,0,0,1-83.22955,79.57656l-279.25053,97.413A12.57654,12.57654,0,0,1,35.24882,469.62441Z" style="fill:#c4965c"/><path d="M476,200H446.57031a56.20868,56.20868,0,0,0-50.74951,32.31738l-12.85547,27.54908-2.34643-5.89576,15.12036-33.26465a63.8623,63.8623,0,0,1,33.05224-32.34179l19.77735-8.47559a20.51436,20.51436,0,1,0-16.41358-37.60156l-26.08593,11.59375A103.88543,103.88543,0,0,0,360,194.00562V176a7.96067,7.96067,0,0,0-1.9541-5.22852A144.14936,144.14936,0,0,0,384,88.44922a24.19282,24.19282,0,0,0-22.86279-24.42285,23.8026,23.8026,0,0,0-11.21338,2.176A166.50788,166.50788,0,0,0,352,40a23.98827,23.98827,0,0,0-40-17.874A23.98827,23.98827,0,0,0,272,40q0,.67968.03809,1.35742a24.0136,24.0136,0,0,0-8.02771,4.76953,23.77541,23.77541,0,0,0-17.1471-6.10058A24.19289,24.19289,0,0,0,224,64.44922v.90967a24.03174,24.03174,0,0,0-32,23.09033,144.14723,144.14723,0,0,0,25.9541,82.322A7.96128,7.96128,0,0,0,216,176v24a8.00008,8.00008,0,0,0,8,8v10.05518l-24.03723,4.478A47.99248,47.99248,0,0,0,104,224a7.99734,7.99734,0,0,0-7.69421,5.83057l-19.61-4.90235-22.2959-29.728a8.00074,8.00074,0,0,0-12.05664-.85743l-1.53711,1.53711A73.25187,73.25187,0,0,0,24.57227,274.9707a7.99932,7.99932,0,0,0,11.00537,4.18457l25.0957-12.54785,44.30371,81.22363a7.99473,7.99473,0,0,0,9.34277,3.8252l13.83155-4.19141,15.72644,15.72657-16.45008,9.27978A63.938,63.938,0,0,0,40,432c0,1.49707.067,2.99438.1709,4.488l-6.24951,2.28637a20.51618,20.51618,0,0,0-11.25293,10.01075l-.10254.1914c-.03565.06641-.06983.13282-.10352.2002a20.58359,20.58359,0,0,0,25.19239,28.627l8.75732-3.05469a63.96263,63.96263,0,0,0,111.46-38.87793l68.979-24.06054,50.78907,67.709A41.19408,41.19408,0,0,0,361.728,457.09375l5.46093-98.27832a146.70245,146.70245,0,0,0,47.73926-62.585l16.44971-41.13965A23.89406,23.89406,0,0,1,453.66992,240H476a20,20,0,0,0,0-40ZM372.96,281.30762c-.54907,1.177-1.124,2.33642-1.71118,3.48755l-1.182-10.63794,7.256-2.19873ZM232,192v-8H344v8ZM412.56738,168.502l26.08545-11.59375a4.51547,4.51547,0,0,1,6.1167,2.69727,4.54162,4.54162,0,0,1-2.50391,5.57715l-19.77636,8.47461A79.83313,79.83313,0,0,0,381.17383,214.085l-8.75952,19.27051-6.394-16.06641,2.175-4.78613A87.92235,87.92235,0,0,1,412.56738,168.502ZM354.47656,82.21a7.93526,7.93526,0,0,1,5.917-2.20117A8.32449,8.32449,0,0,1,368,88.44922,128.018,128.018,0,0,1,340.1521,168h-2.93958A84.62927,84.62927,0,0,0,352,120H336a68.76315,68.76315,0,0,1-19.36047,48h-2.54822l5.69775-24.31543A8.001,8.001,0,0,0,316,134.93066a8.20089,8.20089,0,0,1-2.3938-2.12011q-.75879-2.51588-1.605-5.00318.00879-.34863.04712-.71069a7.7863,7.7863,0,0,1,3.02734-5.27539,8.07066,8.07066,0,0,1,5.93506-1.76367l.311.04a8.00006,8.00006,0,0,0,7.78564-12.03516,7.88154,7.88154,0,0,1-1.08691-4.65723,8.0861,8.0861,0,0,1,7.38672-7.38476,7.88734,7.88734,0,0,1,4.65625,1.08789,8,8,0,0,0,12.0122-7.96387A8.38639,8.38639,0,0,1,352,88,7.93321,7.93321,0,0,1,354.47656,82.21ZM280,56a8.26649,8.26649,0,0,1,1.13818.0752,7.99939,7.99939,0,0,0,7.97022-12.00977A7.85548,7.85548,0,0,1,288,40a8,8,0,0,1,16,0,8,8,0,0,0,16,0,8,8,0,0,1,16,0,150.34835,150.34835,0,0,1-5.60913,40.67529,24.0619,24.0619,0,0,0-18.33228,21.62647,24.54152,24.54152,0,0,0-.01611,3.1416,24.617,24.617,0,0,0-2.48193,1.072,23.975,23.975,0,0,0-14.5918-33.48413,24.07458,24.07458,0,0,0-17.89087-16.4707A7.945,7.945,0,0,1,280,56Zm-32.39307.00879A7.99683,7.99683,0,0,1,256,64a8.38639,8.38639,0,0,1-.07568,1.14453A7.9996,7.9996,0,0,0,267.936,73.1084,7.85025,7.85025,0,0,1,272,72a8.00917,8.00917,0,0,1,8,8,8.00008,8.00008,0,0,0,8,8,8.00313,8.00313,0,0,1,3.896,14.99219,7.99317,7.99317,0,0,0-4.09961,6.97754H287.79v.01074h.00647a7.95788,7.95788,0,0,0,.77185,3.44141l2.44482,5.13085a133.52437,133.52437,0,0,1,5.19263,12.49439,24.10823,24.10823,0,0,0,2.66077,8.29175c1.10046,3.855,2.01355,7.76367,2.76379,11.70825L297.65784,168H278.34216l-5.392-23.01074a23.8397,23.8397,0,0,0-2.11817-35.73145,24.471,24.471,0,0,0-6.875-3.81152,24.49751,24.49751,0,0,0-.01562-3.14453,24.04843,24.04843,0,0,0-22.24317-22.24219c-.56836-.04053-1.13415-.05566-1.69824-.05542V64.44922A8.32454,8.32454,0,0,1,247.60693,56.00879Zm-32,24A7.99683,7.99683,0,0,1,224,88a8.38639,8.38639,0,0,1-.07568,1.14453,8,8,0,0,0,12.0122,7.96387,7.84645,7.84645,0,0,1,4.65821-1.08692,8.08412,8.08412,0,0,1,7.38476,7.38379,7.88608,7.88608,0,0,1-1.0874,4.65918,8.00151,8.00151,0,0,0,8.01367,12.00489,8.11078,8.11078,0,0,1,6.01856,1.752,7.7863,7.7863,0,0,1,3.02734,5.27539A7.96153,7.96153,0,0,1,260,134.93066a8.001,8.001,0,0,0-3.78906,8.75391L261.90869,168h-2.54834A68.7629,68.7629,0,0,1,240,120H224a84.63091,84.63091,0,0,0,14.78735,48h-2.93921A128.01645,128.01645,0,0,1,208,88.44922,8.32454,8.32454,0,0,1,215.60693,80.00879ZM336,208v34.02637L240,270.4707V208ZM224,275.21143l-48,14.22241v-5.15235l2.62549-1.75024A47.90426,47.90426,0,0,0,200,242.59277v-3.792l24-4.471ZM77.24658,241.55762,96,246.24585v13.938L73.9751,251.374ZM112,240h48v54.17456l-28.3291,8.3938L112,269.78394Zm72,1.78149v.81128a31.92579,31.92579,0,0,1-8,21.15967V243.272ZM152,192a32.03635,32.03635,0,0,1,32,32v1.50708l-9.54688,1.77856A7.98038,7.98038,0,0,0,168,224H120A32.03635,32.03635,0,0,1,152,192ZM47.40088,212.53418l15.6842,20.91211-5.62683,16.88037L36.79736,260.65723A57.2624,57.2624,0,0,1,47.40088,212.53418ZM81.667,271.68311l16.8595,6.74365,22.61365,37.68945a7.99207,7.99207,0,0,0,9.13232,3.55371l216-64A7.999,7.999,0,0,0,352,248V225.33105l13.34766,33.53809L115.90723,334.457Zm272.82544,7.1936,2.96338,26.67041a107.13152,107.13152,0,0,1-45.08423,31.36011L186.33167,383.01709l-40.81458-40.81445ZM155.62268,374.936l13.27258,13.2727-4.75781,2.928-8.47363,3.09985a64.02358,64.02358,0,0,0-12.09229-12.50219ZM104,384a48.13886,48.13886,0,0,1,35.79053,16.0437l-8.20386,3.00122a39.98957,39.98957,0,0,0-67.3501,24.63916l-8.20324,3.001A48.04723,48.04723,0,0,1,104,384Zm9.135,25.79517-30.4148,11.12671a24.02122,24.02122,0,0,1,30.4148-11.12671ZM104,480a47.55236,47.55236,0,0,1-30.76135-11.12012l9.189-3.20508a39.98337,39.98337,0,0,0,59.41626-20.72509l9.15735-3.19409A48.08147,48.08147,0,0,1,104,480ZM478.8335,222.833A3.97587,3.97587,0,0,1,476,224H453.66992A39.81786,39.81786,0,0,0,416.522,249.14941l-16.4497,41.13868A130.75058,130.75058,0,0,1,354.751,348.10645a8,8,0,0,0-3.32862,6.05957l-5.66992,102.03906a25.19406,25.19406,0,0,1-45.313,13.71387L246.14014,397.5293a7.99559,7.99559,0,0,0-9.03467-2.75293L42.38428,462.69629a4.58323,4.58323,0,0,1-5.64356-6.29688l.0835-.15625q.05493-.10254.106-.20507a4.56165,4.56165,0,0,1,2.5083-2.24512l117.13379-42.85181,1.624,2.63892,12.95569-7.97266,146.71814-53.6748a122.91261,122.91261,0,0,0,69.58935-63.86035L410.31934,239.084A40.15223,40.15223,0,0,1,446.57031,216H476a4.00684,4.00684,0,0,1,2.8335,6.833Z"/><path d="M332.51172,364.86328a7.99236,7.99236,0,0,0-7.42236-.84473c-1.22071.47657-2.49707.93067-3.45411,1.26758l-56.6499,19.75977a8.00012,8.00012,0,0,0-3.91894,12.1416l41.24267,58.91406A18.51879,18.51879,0,0,0,336,445.48047V371.46973A8.00059,8.00059,0,0,0,332.51172,364.86328ZM320,445.48047a2.5198,2.5198,0,0,1-4.58643,1.44141l-35.17724-50.25L320,382.80176Z"/></g></svg>
