<svg height="512pt" viewBox="0 0 512 512" width="512pt" xmlns="http://www.w3.org/2000/svg"><path d="m504.5 504.5h-497v-75.40625h497zm0 0" fill="#bf7b4c"/><path d="m464.367188 429.09375h40.132812v75.40625h-40.132812zm0 0" fill="#a86c43"/><path d="m504.5 158.308594h-497v-46.097656h497zm0 0" fill="#bf7b4c"/><path d="m461.5 112.210938h43v46.097656h-43zm0 0" fill="#a86c43"/><g fill="#805333"><path d="m461.5 429.09375h-30v-112.34375h30zm0 0"/><path d="m461.5 270.652344h-30v-112.34375h30zm0 0"/><path d="m80.5 429.09375h-30v-112.34375h30zm0 0"/><path d="m80.5 270.652344h-30v-112.34375h30zm0 0"/><path d="m80.5 112.34375h-30v-104.84375h30zm0 0"/></g><path d="m7.5 270.652344h497v46.097656h-497zm0 0" fill="#bf7b4c"/><path d="m461.5 270.652344h43v46.097656h-43zm0 0" fill="#a86c43"/><path d="m417.472656 206.90625c-2.59375 0-5.078125.609375-7.375 1.710938-2.476562-11.667969-10.703125-20.242188-20.472656-20.242188-4.679688 0-9.003906 1.96875-12.515625 5.300781-3.507813-3.332031-7.832031-5.300781-12.511719-5.300781-4.839844 0-9.304687 2.109375-12.875 5.652344-3.5625-8.746094-10.636718-14.707032-18.785156-14.707032-7.96875 0-14.910156 5.707032-18.542969 14.144532-3.46875-3.203125-7.707031-5.089844-12.285156-5.089844-7.300781 0-13.742187 4.789062-17.566406 12.078125-3.820313-7.289063-10.261719-12.078125-17.566407-12.078125-9.636718 0-17.773437 8.34375-20.367187 19.773438-1.996094-.804688-4.117187-1.242188-6.3125-1.242188-.074219 0-.144531.007812-.214844.007812 1.347657 1.410157 2.503907 3.003907 3.425781 4.742188 3.570313-2.726562 8.03125-4.351562 12.875-4.351562 4.679688 0 9.003907 1.515624 12.511719 4.082031 3.511719-2.566407 7.835938-4.082031 12.515625-4.082031 9.769532 0 17.996094 6.601562 20.472656 15.585937 2.296876-.851563 4.78125-1.320313 7.375-1.320313 10.0625 0 18.480469 7 20.675782 16.390626 2.511718-1.046876 5.269531-1.625 8.160156-1.625 11.730469 0 21.242188 9.507812 21.242188 21.238281 0 4.933593-1.6875 9.472656-4.511719 13.078125h76.675781v-56.839844c-3.742188-4.285156-8.644531-6.90625-14.027344-6.90625zm0 0" fill="#63a65c"/><path d="m431.5 7.5h30v104.84375h-30zm0 0" fill="#805333"/><path d="m136.058594 98.152344c-7.664063 2.109375-16.132813-.839844-20.703125-7.859375-4.566407-7.023438-3.824219-15.957031 1.210937-22.109375l-4.9375-7.59375s-6.980468 20.269531-31.128906 38.457031v13.164063h26.296875c19.785156-7.699219 34.199219-6.464844 34.199219-6.464844zm0 0" fill="#a5d5a8"/><path d="m243.671875 23.21875c-1.1875.609375-2.304687 1.296875-3.359375 2.050781-.042969-.085937-.082031-.171875-.125-.257812-5.8125-11.304688-19.6875-15.757813-30.992188-9.945313-11.304687 5.8125-15.757812 19.6875-9.945312 30.992188.042969.085937.09375.167968.136719.253906-1.226563.417969-2.433594.925781-3.621094 1.539062-13.230469 6.800782-18.441406 23.039063-11.636719 36.265626 6.800782 13.230468 23.035156 18.441406 36.265625 11.640624 2.441407-1.253906 5.160157-2.65625 8.054688-4.144531 5.609375 5.636719 14.425781 7.28125 21.875 3.449219 7.449219-3.828125 11.242187-11.953125 9.921875-19.796875 2.894531-1.488281 5.613281-2.886719 8.054687-4.140625 13.230469-6.800781 18.4375-23.039062 11.636719-36.269531-6.800781-13.226563-23.039062-18.4375-36.265625-11.636719zm0 0" fill="#74c26c"/><path d="m200.832031 90.167969c0-30.46875 24.699219-55.167969 55.167969-55.167969 9.550781 0 18.53125 2.425781 26.363281 6.695312-.484375-2.324218-1.285156-4.625-2.425781-6.839843-6.800781-13.226563-23.039062-18.4375-36.265625-11.636719-1.1875.609375-2.304687 1.296875-3.359375 2.050781-.042969-.085937-.082031-.171875-.125-.257812-5.8125-11.304688-19.6875-15.757813-30.992188-9.945313-11.304687 5.8125-15.757812 19.6875-9.945312 30.992188.042969.085937.09375.167968.136719.25-1.226563.421875-2.433594.929687-3.621094 1.539062-13.230469 6.804688-18.441406 23.039063-11.636719 36.269532 3.65625 7.121093 10.050782 11.914062 17.238282 13.769531-.351563-2.523438-.535157-5.101563-.535157-7.71875zm0 0" fill="#63a65c"/><path d="m184.128906 84.117188c-6.480468-12.605469-2.050781-27.9375 9.828125-35.238282-.578125-2.644531-1.628906-5.226562-3.191406-7.628906-6.929687-10.65625-21.1875-13.675781-31.839844-6.746094-.082031.054688-.160156.109375-.238281.164063-.542969-1.179688-1.171875-2.332031-1.898438-3.449219-8.109374-12.46875-24.792968-16.003906-37.261718-7.894531-12.472656 8.109375-16.003906 24.792969-7.894532 37.261719 1.496094 2.300781 3.160157 4.863281 4.9375 7.59375-5.039062 6.152343-5.777343 15.089843-1.210937 22.109374 4.566406 7.023438 13.035156 9.972657 20.703125 7.859376 1.773438 2.730468 3.441406 5.292968 4.9375 7.59375 1.648438 2.535156 3.65625 4.695312 5.90625 6.46875h33.339844c6.347656-4.992188 9.90625-12.386719 10.238281-20.023438-2.546875-2.195312-4.726563-4.898438-6.355469-8.070312zm0 0" fill="#74c26c"/><path d="m112.496094 61.921875c9.476562-7.664063 21.535156-12.257813 34.671875-12.257813 13.558593 0 25.972656 4.894532 35.578125 13.007813 2.011718-5.574219 5.851562-10.5 11.207031-13.792969-.574219-2.644531-1.628906-5.226562-3.1875-7.628906-6.929687-10.65625-21.1875-13.675781-31.84375-6.746094-.078125.054688-.15625.109375-.234375.164063-.542969-1.179688-1.171875-2.332031-1.902344-3.449219-8.109375-12.46875-24.792968-16.003906-37.261718-7.894531s-16.003907 24.792969-7.894532 37.261719c.285156.4375.574219.882812.867188 1.335937zm0 0" fill="#63a65c"/><path d="m241.511719 112.210938h31.734375c-8.214844-23.847657-4.945313-41.085938-4.945313-41.085938l-8.054687 4.140625c1.320312 7.839844-2.472656 15.96875-9.921875 19.796875-7.449219 3.832031-16.265625 2.1875-21.875-3.449219l-8.054688 4.140625s9.824219 4.550782 21.117188 16.457032zm0 0" fill="#a5d5a8"/><path d="m431.5 24.195312c-3.964844-4.550781-9.703125-7.554687-16.207031-7.878906-12.695313-.628906-23.5 9.148438-24.132813 21.84375-.003906.097656-.003906.191406-.007812.289063-1.269532-.253907-2.574219-.417969-3.90625-.484375-14.855469-.738282-27.5 10.703125-28.238282 25.5625-.738281 14.855468 10.707032 27.5 25.5625 28.238281 2.738282.136719 5.792969.289063 9.046876.449219 2.03125 7.6875 8.835937 13.527344 17.203124 13.941406 8.367188.417969 15.71875-4.714844 18.503907-12.164062.738281.039062 1.460937.074218 2.179687.109374v-69.90625zm0 0" fill="#74c26c"/><path d="m431.5 39.410156v-15.214844c-3.964844-4.550781-9.703125-7.554687-16.207031-7.878906-12.695313-.628906-23.5 9.148438-24.132813 21.84375-.003906.097656-.003906.191406-.007812.289063-1.269532-.253907-2.574219-.417969-3.90625-.484375-14.855469-.738282-27.5 10.703125-28.238282 25.5625-.648437 13.0625 8.121094 24.414062 20.347657 27.464844 1.746093-27.871094 24.191406-50.128907 52.144531-51.582032zm0 0" fill="#63a65c"/><path d="m359.007812 63.527344c.40625-8.167969 4.417969-15.300782 10.410157-19.949219-4.652344-10.316406-15.53125-16.972656-27.402344-15.710937-1.328125.140624-2.617187.378906-3.875.699218-.007813-.09375-.011719-.1875-.023437-.285156-1.34375-12.640625-12.679688-21.796875-25.316407-20.453125-12.640625 1.34375-21.796875 12.683594-20.453125 25.320313.007813.097656.023438.191406.039063.285156-1.296875-.050782-2.609375-.011719-3.9375.128906-2.871094.304688-5.582031 1.058594-8.085938 2.167969 6.136719 13.0625.878907 28.742187-12.0625 35.394531-.441406.226562-.90625.464844-1.367187.703125 4.753906 10.085937 15.503906 16.546875 27.214844 15.300781 2.726562-.289062 5.769531-.613281 9.007812-.957031 3.199219 7.277344 10.828125 11.992187 19.15625 11.105469 8.328125-.886719 14.796875-7.097656 16.390625-14.886719 3.238281-.34375 6.28125-.667969 9.011719-.957031 5.160156-.550782 9.824218-2.527344 13.644531-5.492188-1.707031-3.773437-2.570313-7.996094-2.351563-12.414062zm0 0" fill="#74c26c"/><path d="m328.410156 39.332031c12.945313 0 24.847656 4.457031 34.253906 11.921875 1.75-2.976562 4.050782-5.578125 6.753907-7.675781-4.652344-10.320313-15.53125-16.972656-27.402344-15.710937-1.328125.140624-2.617187.378906-3.875.699218-.007813-.09375-.011719-.191406-.023437-.285156-1.34375-12.640625-12.679688-21.796875-25.316407-20.453125-12.640625 1.34375-21.796875 12.679687-20.453125 25.320313.007813.09375.023438.191406.039063.285156-1.296875-.050782-2.609375-.011719-3.9375.128906-2.871094.304688-5.582031 1.054688-8.085938 2.167969 6.136719 13.0625.878907 28.742187-12.0625 35.390625-.441406.230468-.90625.46875-1.367187.703125 1.824218 3.867187 4.527344 7.203125 7.828125 9.773437 5.808593-24.242187 27.625-42.265625 53.648437-42.265625zm0 0" fill="#63a65c"/><path d="m338.261719 112.210938c2.449219-19.507813 9.449219-30.777344 9.449219-30.777344l-9.007813.957031c-1.59375 7.789063-8.0625 14-16.390625 14.886719-8.332031.886718-15.960938-3.828125-19.160156-11.105469l-9.007813.957031s8.21875 8.511719 14.605469 25.082032zm0 0" fill="#a5d5a8"/><path d="m338.09375 236.335938c-2.890625 0-5.648438.578124-8.160156 1.625-2.195313-9.390626-10.613282-16.386719-20.675782-16.386719-2.59375 0-5.078124.464843-7.375 1.316406-2.476562-8.984375-10.703124-15.585937-20.472656-15.585937-4.679687 0-9.003906 1.515624-12.515625 4.082031-3.507812-2.566407-7.832031-4.082031-12.511719-4.082031-4.84375 0-9.304687 1.625-12.875 4.351562-3.5625-6.730469-10.636718-11.320312-18.785156-11.320312-4.195312 0-8.097656 1.222656-11.390625 3.324218-10.53125-5.835937-20.09375-5.460937-28 5.453125-3.65625 1.613281-6.773437 4.222657-9.003906 7.492188-3.820313-5.613281-10.261719-9.300781-17.5625-9.300781-9.640625 0-17.777344 6.425781-20.371094 15.222656-1.996093-.621094-4.117187-.953125-6.3125-.953125-11.730469 0-21.242187 9.507812-21.242187 21.238281 0 .621094.03125 1.234375.085937 1.84375-7.417969 3.3125-12.59375 10.746094-12.59375 19.398438 0 2.304687.371094 4.519531 1.050781 6.597656h255.441407c2.820312-3.605469 4.511719-8.140625 4.511719-13.074219 0-11.730469-9.511719-21.242187-21.242188-21.242187zm0 0" fill="#74c26c"/><path d="m119.917969 366.246094c-16.523438 0-31.046875 8.542968-39.417969 21.445312v41.402344h83.625c1.78125-4.960938 2.761719-10.304688 2.761719-15.878906 0-25.9375-21.03125-46.96875-46.96875-46.96875zm0 0" fill="#f94530"/><path d="m119.917969 366.246094c-16.523438 0-31.046875 8.542968-39.417969 21.445312v8.5625c8.394531-7.863281 19.675781-12.683594 32.085938-12.683594 25.453124 0 46.179687 20.253907 46.945312 45.523438h4.597656c1.78125-4.960938 2.757813-10.304688 2.757813-15.878906 0-25.9375-21.03125-46.96875-46.96875-46.96875zm0 0" fill="#db3d2a"/><path d="m97.140625 372.140625c6.75-3.75 14.511719-5.894531 22.777344-5.894531 8.359375 0 16.199219 2.195312 23 6.023437l7.050781-7.050781c4.6875-4.6875 4.6875-12.289062 0-16.972656-4.6875-4.6875-12.285156-4.6875-16.972656 0l-1.003906 1.003906v-1.628906c0-6.628906-5.371094-12-12-12-6.628907 0-12 5.371094-12 12v1.421875l-1.152344-1.148438c-4.6875-4.6875-12.285156-4.6875-16.972656 0-4.683594 4.683594-4.6875 12.285157 0 16.96875zm0 0" fill="#74c26c"/><path d="m399.53125 366.246094c-25.9375 0-46.964844 21.03125-46.964844 46.96875 0 5.574218.976563 10.917968 2.757813 15.878906h76.175781v-50.277344c-8.382812-7.792968-19.617188-12.570312-31.96875-12.570312zm0 0" fill="#f94530"/><path d="m399.53125 366.246094c-25.9375 0-46.964844 21.03125-46.964844 46.96875 0 2.695312.230469 5.335937.664063 7.90625 3.765625-22.167969 23.0625-39.046875 46.300781-39.046875 12.355469 0 23.585938 4.773437 31.96875 12.570312v-15.828125c-8.382812-7.792968-19.617188-12.570312-31.96875-12.570312zm0 0" fill="#db3d2a"/><path d="m431.5 350.765625c-.515625-.902344-1.144531-1.753906-1.914062-2.523437-4.6875-4.683594-12.285157-4.683594-16.972657 0l-1.003906 1.007812v-1.628906c0-6.628906-5.375-12-12.003906-12-6.625 0-12 5.371094-12 12v1.421875l-1.152344-1.152344c-4.683594-4.6875-12.285156-4.6875-16.96875 0-4.6875 4.6875-4.6875 12.289063 0 16.972656l7.273437 7.277344c6.75-3.75 14.511719-5.894531 22.777344-5.894531 8.359375 0 16.199219 2.195312 23 6.023437l7.050782-7.050781c.769531-.769531 1.398437-1.621094 1.917968-2.523438v-11.929687zm0 0" fill="#74c26c"/><path d="m172.714844 357.945312c7.566406-1.523437 15.613281-1.214843 23.488281 1.292969 7.96875 2.535157 14.773437 7 20.09375 12.710938l8.859375-4.582031c5.886719-3.046876 8.191406-10.285157 5.144531-16.175782-3.042969-5.886718-10.285156-8.1875-16.171875-5.144531l-1.265625.652344.496094-1.550781c2.007813-6.316407-1.480469-13.066407-7.796875-15.074219-6.316406-2.011719-13.066406 1.480469-15.078125 7.796875l-.429687 1.355468-.746094-1.445312c-3.046875-5.886719-10.289063-8.191406-16.175782-5.144531-5.886718 3.042969-8.191406 10.285156-5.144531 16.171875zm0 0" fill="#74c26c"/><path d="m297.605469 429.09375c.675781-1.53125 1.28125-3.113281 1.800781-4.746094 7.863281-24.714844-5.796875-51.128906-30.515625-58.996094-24.71875-7.863281-51.132813 5.796876-58.996094 30.515626-3.621093 11.375-2.671875 23.105468 1.808594 33.226562zm0 0" fill="#f94530"/><path d="m209.894531 413.878906c7.863281-24.71875 34.277344-38.382812 58.996094-30.515625 16.921875 5.382813 28.664063 19.460938 31.863281 35.742188 4.535156-23.105469-8.886718-46.445313-31.863281-53.753907-24.71875-7.863281-51.132813 5.796876-58.996094 30.515626-2.480469 7.789062-2.816406 15.746093-1.34375 23.238281.34375-1.746094.789063-3.492188 1.34375-5.226563zm0 0" fill="#db3d2a"/><path d="m209.894531 395.867188c2.257813-7.09375 6.046875-13.273438 10.882813-18.296876-5.703125-8.394531-14.148438-15.015624-24.574219-18.332031-18.789063-5.976562-38.546875.492188-50.402344 14.789063 12.703125 8.40625 21.085938 22.816406 21.085938 39.1875 0 5.574218-.976563 10.921875-2.757813 15.882812h47.574219c-4.480469-10.121094-5.429687-21.855468-1.808594-33.230468zm0 0" fill="#f94530"/><path d="m154.703125 381.667969c11.621094-8.277344 26.855469-11.183594 41.5-6.523438 7.042969 2.242188 13.179687 5.988281 18.179687 10.773438 1.832032-3.050781 3.984376-5.84375 6.394532-8.347657-5.703125-8.394531-14.148438-15.015624-24.574219-18.332031-18.789063-5.976562-38.546875.492188-50.402344 14.789063 3.277344 2.167968 6.269531 4.738281 8.902344 7.640625zm0 0" fill="#db3d2a"/><path d="m164.125 429.09375h2.761719c-.003907-2.703125-.234375-5.355469-.675781-7.933594-.464844 2.734375-1.167969 5.386719-2.085938 7.933594zm0 0" fill="#db3d2a"/><path d="m207.777344 429.09375h3.925781c-1.554687-3.511719-2.683594-7.21875-3.34375-11.039062-.640625 3.703124-.824219 7.40625-.582031 11.039062zm0 0" fill="#db3d2a"/><path d="m363.894531 382.640625c-12.433593-13.503906-32.207031-18.996094-50.550781-12.359375-7.933594 2.871094-14.605469 7.660156-19.710938 13.648438 7.695313 11.476562 10.289063 26.222656 5.773438 40.417968-.519531 1.632813-1.125 3.214844-1.800781 4.746094h57.71875c-1.78125-4.960938-2.757813-10.304688-2.757813-15.878906 0-11.679688 4.273438-22.355469 11.328125-30.574219zm0 0" fill="#f94530"/><path d="m313.34375 386.386719c15.339844-5.550781 31.683594-2.617188 43.898438 6.394531 1.78125-3.671875 4.023437-7.078125 6.652343-10.140625-12.433593-13.503906-32.207031-18.996094-50.550781-12.359375-7.933594 2.871094-14.605469 7.660156-19.710938 13.648438 2.238282 3.339843 4.042969 6.953124 5.371094 10.75 4.132813-3.5 8.945313-6.339844 14.339844-8.292969zm0 0" fill="#db3d2a"/><path d="m352.566406 429.09375h2.757813c-.902344-2.515625-1.601563-5.132812-2.066407-7.832031-.441406 2.546875-.679687 5.164062-.691406 7.832031zm0 0" fill="#db3d2a"/><path d="m300.925781 418.164062c-.363281 2.066407-.867187 4.132813-1.519531 6.183594-.519531 1.632813-1.125 3.214844-1.800781 4.746094h3.933593c.226563-3.695312.011719-7.359375-.613281-10.929688zm0 0" fill="#db3d2a"/><path d="m245.398438 364.0625c7.566406-1.527344 15.613281-1.214844 23.492187 1.289062 7.964844 2.535157 14.773437 7.003907 20.089844 12.710938l8.859375-4.582031c5.886718-3.042969 8.191406-10.285157 5.148437-16.171875-3.046875-5.886719-10.289062-8.191406-16.175781-5.148438l-1.261719.65625.492188-1.550781c2.011719-6.316406-1.480469-13.066406-7.796875-15.078125-6.316406-2.007812-13.066406 1.484375-15.074219 7.800781l-.433594 1.355469-.746093-1.449219c-3.046876-5.886719-10.289063-8.191406-16.175782-5.144531-5.886718 3.046875-8.191406 10.285156-5.144531 16.175781zm0 0" fill="#74c26c"/><path d="m335.476562 343.125c-6.003906-2.8125-13.148437-.226562-15.960937 5.777344l-.601563 1.285156-.554687-1.53125c-2.253906-6.230469-9.136719-9.457031-15.371094-7.203125-4.359375 1.578125-7.238281 5.421875-7.808593 9.722656 3.25.796875 6.148437 2.925781 7.804687 6.128907 3.046875 5.886718.742187 13.128906-5.144531 16.175781l-8.859375 4.582031c1.507812 1.617188 2.894531 3.332031 4.15625 5.132812l.792969.375c5.070312-5.820312 11.640624-10.476562 19.414062-13.289062 7.859375-2.84375 15.980469-3.453125 23.675781-2.164062l4.230469-9.03125c2.8125-6 .226562-13.148438-5.773438-15.960938zm0 0" fill="#74c26c"/><path d="m504.5 165.808594c4.140625 0 7.5-3.355469 7.5-7.5v-46.097656c0-4.140626-3.359375-7.5-7.5-7.5h-35.5v-26.378907c0-4.140625-3.359375-7.5-7.5-7.5s-7.5 3.359375-7.5 7.5v26.378907h-15v-89.710938h15v35.332031c0 4.144531 3.359375 7.5 7.5 7.5s7.5-3.355469 7.5-7.5v-42.832031c0-4.140625-3.359375-7.5-7.5-7.5h-30c-4.140625 0-7.5 3.359375-7.5 7.5v2.90625c-16.652344-5.644531-34.191406 3.871094-39.0625 20.039062-4.589844.125-8.980469 1.164063-12.976562 2.941407-6.667969-8.515625-17.042969-13.488281-28.066407-13.15625-4.699219-12.839844-17.699219-21.363281-31.890625-19.859375-14.195312 1.511718-25.101562 12.578125-26.996094 26.121094-.429687.082031-.859374.167968-1.285156.265624-9.257812-12.636718-26.25-17.574218-41.046875-11.34375-16.261719-18.617187-47.660156-11.066406-52.855469 13.984376-7.921874-5.964844-18.605468-7.820313-28.296874-4.460938-10.820313-14.117188-30.925782-17.757812-46.089844-7.898438-14.730469 9.578126-19.703125 28.597657-12.160156 43.992188-2.019532 4.207031-6.644532 12.449219-15.273438 21.40625v-74.9375c0-4.140625-3.359375-7.5-7.5-7.5h-30c-4.140625 0-7.5 3.359375-7.5 7.5v97.210938h-35.5c-4.140625 0-7.5 3.359374-7.5 7.5v46.097656c0 4.140625 3.359375 7.5 7.5 7.5h35.5v97.34375h-35.5c-4.140625 0-7.5 3.359375-7.5 7.5v46.097656c0 4.144531 3.359375 7.5 7.5 7.5h35.5v97.34375h-35.5c-4.140625 0-7.5 3.359375-7.5 7.5v75.40625c0 4.140625 3.359375 7.5 7.5 7.5h497c4.140625 0 7.5-3.359375 7.5-7.5v-75.40625c0-4.140625-3.359375-7.5-7.5-7.5h-35.5v-97.34375h35.5c4.140625 0 7.5-3.355469 7.5-7.5v-46.097656c0-4.140625-3.359375-7.5-7.5-7.5h-35.5v-97.34375zm-308.964844-61.9375c.808594.3125 1.601563.589844 2.414063.839844h-2.761719c.117188-.277344.234375-.558594.347656-.839844zm24.460938.242187c.300781.183594.621094.378907.960937.597657h-2.71875c.589844-.183594 1.175781-.382813 1.757813-.597657zm24.46875.402344c6.757812-.714844 12.777344-4.011719 16.957031-8.71875.445313 2.808594 1.03125 5.789063 1.800781 8.914063h-18.558594c-.0625-.066407-.132812-.132813-.199218-.195313zm34.277344.195313c-1.414063-4.953126-2.300782-9.523438-2.832032-13.566407 4.550782 2.273438 9.613282 3.550781 14.847656 3.628907 1.574219 2.058593 3.890626 5.386718 6.332032 9.9375zm34.695312-.730469c1.257812.335937 2.515625.578125 3.824219.730469h-3.496094c-.109375-.246094-.21875-.488282-.328125-.730469zm18.960938-2.019531c-.191407.894531-.375 1.8125-.550782 2.75h-8.53125c3.1875-.363282 6.273438-1.300782 9.082032-2.75zm20.234374-13.765626c2.132813-.492187 4.210938-1.1875 6.207032-2.074218 5.136718 6.535156 12.59375 11.191406 21.195312 12.675781.78125 1.4375 1.777344 3.421875 2.832032 5.914063h-35.714844c1.703125-7.738282 4.007812-13.390626 5.480468-16.515626zm37.070313-42.386718c4.523437.890625 8.78125-2.480469 8.945313-7.09375.023437-.101563-.050782-6.261719 5.085937-10.910156 5.941406-5.378907 14.601563-5.171876 20.265625-.484376v61.386719c-.707031.710938-1.261719 1.550781-1.636719 2.488281-4.332031 10.777344-18.773437 9.417969-21.496093-.894531-1.839844-6.96875-9.609376-5.410156-11.402344-5.800781-1.691406-.480469-15.683594 1.730469-21.5-12.171875-5.855469-13.910156 6.085937-29.601563 21.738281-26.519531zm-91.796875-7.296875c1.488281-1.617188 2.191406-3.808594 1.921875-5.992188.007813-.105469-1.015625-6.167969 3.332031-11.550781 8.613282-10.660156 25.976563-5.652344 27.492188 8.042969l.019531.242187c.421875 4.597656 4.863281 7.726563 9.332031 6.582032 7.460938-1.914063 15.160156.707031 19.886719 6.480468-7.339844 8.460938-9.960937 19.777344-7.542969 30.269532-8.289062 3.457031-19.183594-.539063-20.992187 8.300781-2.125 10.386719-16.519531 12.65625-21.394531 2.132812-5.066407-10.988281-19.449219 4.066407-32.433594-8.964843 9.960937-7.929688 14.664062-20.679688 12.347656-33.089844 2.164062-.15625 5.273438.546875 8.03125-2.453125zm-92.011719 4.070312c-6.257812-12.269531 5.5-26.011719 18.566407-21.820312 3.917968 1.257812 7.121093 3.960937 9.027343 7.625l.113281.238281c2.058594 4.117188 7.316407 5.425781 11.066407 2.75 15.335937-10.9375 35.460937 4.160156 29.820312 21.734375-4.921875 15.34375-21.613281 11.746094-21.742187 22.199219.007812 1.15625.25 1.507812.261718 3.015625.066407 9.199219-10.421874 14.574219-17.847656 9.191406-1.082031-.785156-1.292968-1.160156-1.953125-1.703125-2.292969-1.878906-5.507812-2.246094-8.183593-.867188l-8.058594 4.140626c-8.574219 4.40625-19.042969 1.816406-24.609375-5.863282-6.570313-8.964844-4.125-22.019531 5.527343-27.953125 3.710938-2.28125 6.796876-1.964843 8.472657-6.1875.8125-2.035156-.429688-6.398437-.460938-6.5zm-82.28125-12.96875c8.984375-5.84375 21.042969-3.289062 26.886719 5.695313 1.515625 2.332031 2.101562 5.4375 6.152344 6.578125 6.355468 1.792969 7.953125-5.394531 18.035156-3.265625 4.390625.929687 8.101562 3.652344 10.324219 7.601562-11.152344 10.023438-14.96875 26.90625-7.554688 41.324219 1.355469 2.640625 3.089844 5.171875 5.144531 7.4375-.757812 3.679687-2.558593 7.058594-5.195312 9.726563h-27.664062c-3.007813-3.046876-6.53125-9.820313-8.105469-11.574219-1.875-2.085938-4.796875-2.980469-7.570313-2.21875-10.554687 2.902343-18.636718-9.511719-11.695312-17.984375 2.054687-2.511719 2.277344-6.085938.484375-8.839844l-4.9375-7.597656c-5.84375-8.980469-3.285157-21.042969 5.695312-26.882813zm-18.253906 55.8125c1.359375 6.460938 5.125 12.179688 10.398437 15.980469-3.246093.863281-6.707031 1.945312-10.34375 3.304688h-17.414062v-2c7.265625-5.839844 12.957031-11.804688 17.359375-17.285157zm-47.359375-70.425781h15v89.710938h-15zm-43 104.710938h482v31.097656h-482zm351.296875 143.441406c3.675781-18.820313-11.988281-36.566406-31.785156-34.09375-5.511719-10.191406-16.589844-16.015625-28.191407-14.835938-3.109374-5.394531-7.882812-9.703125-13.96875-12.242187 2.601563-3.859375 6.136719-6.101563 9.757813-6.101563 6.714844 0 7.453125 6.285156 13.839844 4.921875 2.378906-.507812 4.367187-2.136719 5.332031-4.371093 5.578125-12.957032 18.128906-12.734376 23.492188.429687.945312 2.320313 2.988281 4.015625 5.445312 4.519531 6.605469 1.347656 7.34375-5.5 14.378906-5.5 3.25 0 5.789063 1.761719 7.347656 3.238282 2.894532 2.746093 7.433594 2.746093 10.328126 0 8.210937-7.792969 18-.644532 20.484374 11.058593 1.007813 4.75 6.203126 7.308594 10.585938 5.203125 3.660156-1.757812 7.457031-1.066406 10.652344 1.5625v46.214844h-57.699219zm-97.402344-60.488282c-3.113281-1.511718-6.511719-2.460937-10.058593-2.757812 5.160156-5.644531 11.855468-5.246094 16.710937.496094-2.308594.472656-4.570313 1.253906-6.652344 2.261718zm155.105469-2.351562c-2.925781-.824219-5.953125-1.085938-8.957031-.785156-7.328125-16.945313-24.332031-23.207032-37.933594-15.203125-7.082031-4.167969-15.441406-4.589844-22.898437-1.097657-5.34375-7.191406-12.984376-11.40625-21.273438-11.40625-8.128906 0-15.691406 4.109376-21.039062 11.113282-8.792969-3.855469-19.28125-2.398438-27.355469 5.183594-13.65625-12.828126-33.851563-8.15625-42.554688 10.472656-9.503906-7.144532-22.539062-7.726563-32.6875-1.253906-3.492187 2.226562-4.519531 6.863281-2.292969 10.355468 2.226563 3.492188 6.863282 4.519532 10.355469 2.289063 6.796875-4.332031 15.777344-1.875 19.511719 5.183593 2.171875 4.101563 7.507812 5.257813 11.183594 2.453126 4.867187-3.71875 11.542968-3.730469 16.414062-.175782 2.632813 1.925782 6.210938 1.925782 8.847656 0 7.769532-5.675781 18.804688-1.726562 21.332032 7.441406.558594 2.027344 1.9375 3.726563 3.808594 4.683594 4.25 2.175782 5.9375-.492187 10.796874-.492187 6.4375 0 11.921876 4.378906 13.375 10.59375 1.054688 4.523437 5.925782 6.992187 10.1875 5.21875 11.105469-4.628907 22.246094 6.375 18.175782 17.429687-.09375.253906-.210938.546875-.339844.835938h-244.792969c.332031-5.050782 3.445313-9.5625 8.121094-11.648438 2.917969-1.304687 4.6875-4.308594 4.414063-7.492187-.699219-8.175781 5.765624-14.9375 13.683593-14.9375 4.121094 0 6.007813 2.125 9.851563.066406 1.769531-.949219 3.085937-2.566406 3.65625-4.492187 3.261718-11.058594 18-13.429688 24.542968-3.824219 1.398438 2.050781 3.71875 3.277343 6.199219 3.277343 6.300781 0 5.441407-5.21875 12.03125-8.128906 3.789063-1.671875 5.503907-6.101562 3.832031-9.890625-1.671874-3.789062-6.097656-5.503906-9.886718-3.832031-2.140625.945312-4.144532 2.136719-5.972656 3.550781-13.789063-10.65625-33.691407-6.613281-42.421876 8.332031-15.71875-.984374-29.105468 10.800782-30.457031 26.128907-7.550781 5.125-12.316406 13.621093-12.605469 22.890625h-2.851562v-97.34375h336zm-366-34.503906h15v97.34375h-15zm0 158.441406h15v97.34375h-15zm35.851562 32.128906c0-2.488281 2.011719-4.5 4.5-4.5 2.578126 0 3.601563 1.890625 4.335938 2.46875 4.726562 4.722656 12.800781 1.347656 12.800781-5.304687v-1.421875c0-2.480469 2.019531-4.5 4.5-4.5 2.484375 0 4.503907 2.019531 4.503907 4.5.074218.308594-.871094 6.277344 4.628906 8.558594 5.347656 2.214843 8.964844-2.507813 9.179687-2.632813 2.816407-2.816406 7.683594-.816406 7.683594 3.183594 0 2.847656-2.246094 3.777343-4.574219 6.4375-13.78125-5.941407-29.3125-5.8125-42.753906-.117188-2.527344-2.878906-4.804688-3.804687-4.804688-6.671875zm80.796876-11.015625c-1.140626-2.207031-.277344-4.925781 1.929687-6.066406 2.203125-1.140625 4.925781-.273437 6.066406 1.929687l.75 1.445313c3.054688 5.910156 11.785157 5.191406 13.808594-1.171875l.429687-1.355469c.753907-2.363281 3.289063-3.675781 5.652344-2.921875 2.371094.753906 3.679688 3.28125 2.925782 5.652344l-.492188 1.550781c-2.027344 6.363281 4.679688 11.996094 10.589844 8.9375l1.265625-.652343c2.207031-1.144532 4.921875-.28125 6.066406 1.929687 1.140625 2.203125.273437 4.925781-1.929687 6.0625l-4.070313 2.105469c-11.078125-9.628906-25.976563-14.441406-40.738281-13.085938zm186.3125 76.230469c-7.757813-35.742188 34.042968-62.304688 63.039062-39.335938v39.335938zm-111.351563-65.71875c-1.550781-3.53125-3.4375-5.09375-2.566406-7.832031.753906-2.371094 3.28125-3.679688 5.652343-2.925781 2.457032.78125 2.859376 2.894531 3.382813 3.667968 3.054687 5.910156 11.78125 5.191406 13.808594-1.171875l.429687-1.355469c.753906-2.363281 3.28125-3.679687 5.65625-2.921874 2.363282.75 3.675782 3.289062 2.921875 5.65625-.019531.316406-2.730469 5.71875 1.820313 9.554687 4.425781 3.734375 9.300781.332031 9.542968.277344 2.136719-1.105469 4.738282-.3125 5.929688 1.6875 1.402344 2.367187.316406 5.21875-1.792969 6.308593l-4.089843 2.113282c-11.148438-9.679688-25.917969-14.441406-40.65625-13.0625-.011719 0-.027344 0-.039063.003906zm84.851563.027344-1.945313 4.148437c-6.878906-.402343-13.894531.507813-20.679687 2.808594.019531-5.441406-2.304688-10.699219-6.261719-14.363281 1.121093-.394532 2.332031-.335938 3.410156.167968 2.335937 1.097657 2.457031 3.238282 2.875 4.074219 2.269531 6.28125 11.019531 6.65625 13.84375.632813.429687-.683594.804687-2.765625 3.148437-3.609375 1.128907-.410157 2.351563-.355469 3.441407.15625 2.246093 1.054687 3.21875 3.738281 2.167969 5.984375zm-117.5625 65.691406c-9.519532-31.394531 20.960937-59.34375 50.996093-48.664062 19.65625 7.007812 30.691407 28.34375 24.511719 48.664062zm86.101562-36.550781c14.265625-12.78125 35.792969-13.511719 50.875-1.511719-7.519531 11.5625-10.171875 25.246094-8.164062 38.0625h-37.816407c2.699219-12.421875.972657-25.277344-4.894531-36.550781zm75.285156-21.980469c-2.542968-2.890625-4.820312-3.816406-4.820312-6.683594 0-3.972656 4.839844-6.027344 7.683594-3.183594.277343.164063 3.828124 5.058594 9.324218 2.777344 5.363282-2.222656 4.570313-8.113281 4.632813-8.351562 0-2.480469 2.019531-4.5 4.5-4.5s4.5 2.019531 4.5 4.5c.078125.308594-.867188 6.277344 4.628906 8.558594 5.351563 2.214843 8.96875-2.507813 9.179687-2.632813 1.675782-1.675781 4.324219-1.746094 6.085938-.257813v6.90625l-2.96875 2.96875c-13.253906-5.703124-28.726562-6.035156-42.746094-.101562zm45.714844-25.621094c-2.453125-.363281-5.042969-.269531-7.558594.34375-7.472656-12.738281-25.808594-12.921875-33.507812-.273437-19.296875-5.046875-32.699219 18.714843-18.757813 32.65625l.898438.898437c-.457031.371094-.90625.75-1.347657 1.136719-4.867187-3.96875-10.3125-7.015625-16.085937-9.078125l.402344-.855469c4.5625-9.738281.351562-21.371093-9.386719-25.933593-6.445312-3.019532-13.621094-2.203126-19.089844 1.421874-8.269531-6.871093-20.253906-5.683593-27.101562 2.054688-5.285156-12.0625-20.734375-15.546875-30.691406-6.882812-10.519532-6.644532-24.394532-1.882813-28.699219 9.625-3.359375-3.191407-7.71875-5.007813-12.113281-5.3125-1.222657-5.390626-4.734376-10.257813-9.945313-12.988282h212.984375zm-241.1875-13.191406h10.046875c-1.347656.710938-2.613281 1.574219-3.769531 2.578125-1.929688-1.21875-4.058594-2.089844-6.277344-2.578125zm28.292969 53.121094c-9.242188 12.257812-13.101563 28.421875-9.695313 44.226562h-27.667968c2.789062-18.070312-3.585938-36.03125-16.6875-48.226562 16.269531-13.296875 40.144531-11.304688 54.050781 4zm-123.105469 12.644531c20.402344-28.0625 64.777344-17.953125 70.792969 16.375.855469 4.878906.808593 10.0625-.300781 15.203125h-70.492188zm409 106.984375h-482v-60.40625h482zm-43-75.40625h-15v-97.34375h15zm43-112.34375h-355.839844c-4.140625 0-7.5 3.359375-7.5 7.5 0 4.144531 3.359375 7.5 7.5 7.5h33.269532c-12.488282 2.761719-18.972657 16.660156-13.105469 28.003906l.550781 1.066406c-.371094.148438-.742188.296876-1.109375.457032-1.6875-11.175782-12.671875-18.742188-23.941406-15.992188-7.472657-12.742187-25.804688-12.921875-33.503907-.273437-5.027343-1.316407-10.628906-.617188-15.320312 2.332031v-15.589844h25.160156c4.144532 0 7.5-3.359375 7.5-7.5 0-4.144531-3.355468-7.5-7.5-7.5h-98.160156v-31.101562h482zm-43-46.097656h-15v-97.34375h15zm0 0"/><path d="m166.164062 240.179688c-2.929687 2.929687-2.929687 7.679687 0 10.605468 2.929688 2.929688 7.675782 2.929688 10.605469 0 2.050781-2.050781 5.371094-2.050781 7.421875 0 2.929688 2.929688 7.679688 2.929688 10.609375 0 9.957031-9.957031-14.273437-24.972656-28.636719-10.605468zm0 0"/><path d="m264.972656 252.652344c2.050782-2.050782 5.375-2.050782 7.425782 0 2.929687 2.929687 7.675781 2.929687 10.605468 0 9.816406-9.816406-14.183594-25.0625-28.636718-10.605469-2.929688 2.929687-2.929688 7.679687 0 10.605469 2.929687 2.929687 7.679687 2.929687 10.605468 0zm0 0"/><path d="m371.609375 223.417969c-2.929687 2.929687-2.929687 7.679687 0 10.605469 2.925781 2.929687 7.675781 2.929687 10.605469 0 2.046875-2.046876 5.375-2.046876 7.425781 0 2.929687 2.929687 7.675781 2.929687 10.605469 0 9.800781-9.800782-14.199219-25.042969-28.636719-10.605469zm0 0"/></svg>